# xmcd
#
# Track frame offsets:
#	182
#	14070
#	26365
#	37145
#	48032
#	65512
#	76662
#	88697
#	97695
#	108495
#	122205
#	131500
#	143322
#	152992
#	163955
#	179292
#	194010
#	206442
#	219515
#	230540
#
# Disc length: 3229 seconds
#
# Revision: 0
# Processed by: cddbd v1.5.1PL0 Copyright (c) Steve Scherf et al.
# Submitted via: audiograbber 1.83.01
#
DISCID=0f0c9b14
DTITLE=Faron Young - Greatest Hits
DYEAR=1994
DGENRE=Country
TTITLE0=It's Four In The Morning
TTITLE1=Country Girl
TTITLE2=Wine Me Up
TTITLE3=That Over Thirty Look
TTITLE4=Sweet Dreams
TTITLE5=Goin' Steady
TTITLE6=Just Out Of Reach
TTITLE7=Live Fast, Love Hard, Die Young
TTITLE8=Face To The Wall
TTITLE9=I Miss You Already
TTITLE10=Hello Walls
TTITLE11=What's He Doing In My World
TTITLE12=Alone With You
TTITLE13=Just What I Had In Mind
TTITLE14=Almost Dawn In Denver
TTITLE15=Tripping Over The Love She Left Behind
TTITLE16=Until I Can Make It On My Own
TTITLE17=Step Aside
TTITLE18=Leavin' And Sayin' Goodbye
TTITLE19=If Ever I Fall In LOve With A Honky Tonk Girl
EXTD=
EXTT0=
EXTT1=
EXTT2=
EXTT3=
EXTT4=
EXTT5=
EXTT6=
EXTT7=
EXTT8=
EXTT9=
EXTT10=
EXTT11=
EXTT12=
EXTT13=
EXTT14=
EXTT15=
EXTT16=
EXTT17=
EXTT18=
EXTT19=
PLAYORDER=
